HIERARCHY
ROOT Hips
{
	OFFSET	0.00	0.00	0.00
	CHANNELS 6 Xposition Yposition Zposition Zrotation Xrotation Yrotation
	JOINT LeftUpLeg
	{
		OFFSET	 0.126116	-0.014019	-0.065224
		CHANNELS 3 Zrotation Xrotation Yrotation
		JOINT LeftLeg
		{
			OFFSET	 0.000000	 0.000000	 0.569914
			CHANNELS 3 Zrotation Xrotation Yrotation
			JOINT LeftFoot
			{
				OFFSET	 0.000000	 0.000000	 0.544423
				CHANNELS 3 Zrotation Xrotation Yrotation
				JOINT LeftToeBase
				{
					OFFSET	 0.000000	 0.000000	 0.207117
					CHANNELS 3 Zrotation Xrotation Yrotation
					End Site
					{
						OFFSET	 0.000000	 0.000000	 0.207117
					}
				}
			}
		}
	}
	JOINT RightUpLeg
	{
		OFFSET	-0.124023	-0.008373	-0.065224
		CHANNELS 3 Zrotation Xrotation Yrotation
		JOINT RightLeg
		{
			OFFSET	 0.000000	 0.000000	 0.570047
			CHANNELS 3 Zrotation Xrotation Yrotation
			JOINT RightFoot
			{
				OFFSET	 0.000000	 0.000000	 0.544354
				CHANNELS 3 Zrotation Xrotation Yrotation
				JOINT RightToeBase
				{
					OFFSET	 0.000000	 0.000000	 0.207540
					CHANNELS 3 Zrotation Xrotation Yrotation
					End Site
					{
						OFFSET	 0.000000	 0.000000	 0.207540
					}
				}
			}
		}
	}
	JOINT Spine
	{
		OFFSET	 0.000184	-0.007763	 0.117403
		CHANNELS 3 Zrotation Xrotation Yrotation
		JOINT Spine1
		{
			OFFSET	 0.000000	 0.000000	 0.137269
			CHANNELS 3 Zrotation Xrotation Yrotation
			JOINT Spine2
			{
				OFFSET	 0.000000	 0.000000	 0.156879
				CHANNELS 3 Zrotation Xrotation Yrotation
				JOINT LeftShoulder
				{
					OFFSET	 0.080501	-0.002496	 0.160144
					CHANNELS 3 Zrotation Xrotation Yrotation
					JOINT LeftArm
					{
						OFFSET	 0.000000	 0.000000	 0.164363
						CHANNELS 3 Zrotation Xrotation Yrotation
						JOINT LeftForeArm
						{
							OFFSET	 0.000000	 0.000000	 0.364576
							CHANNELS 3 Zrotation Xrotation Yrotation
							JOINT LeftHand
							{
								OFFSET	 0.000000	 0.000000	 0.360812
								CHANNELS 3 Zrotation Xrotation Yrotation
								JOINT LeftHandIndex1
								{
									OFFSET	 0.000000	 0.000000	 0.086006
									CHANNELS 3 Zrotation Xrotation Yrotation
									JOINT LeftHandIndex2
									{
										OFFSET	 0.000000	 0.000000	 0.047236
										CHANNELS 3 Zrotation Xrotation Yrotation
										JOINT LeftHandIndex3
										{
											OFFSET	-0.004284	-0.000551	 0.038166
											CHANNELS 3 Zrotation Xrotation Yrotation
											End Site
											{
												OFFSET	-0.004284	-0.000551	 0.038166
											}
										}
									}
								}
							}
						}
					}
				}
				JOINT Neck
				{
					OFFSET	 0.000000	 0.000000	 0.176489
					CHANNELS 3 Zrotation Xrotation Yrotation
					JOINT Head
					{
						OFFSET	 0.000000	-0.001747	 0.077940
						CHANNELS 3 Zrotation Xrotation Yrotation
						End Site
						{
							OFFSET	 0.000000	-0.001747	 0.077940
						}
					}
				}
				JOINT RightShoulder
				{
					OFFSET	-0.080363	 0.000306	 0.159706
					CHANNELS 3 Zrotation Xrotation Yrotation
					JOINT RightArm
					{
						OFFSET	 0.000000	 0.000000	 0.164196
						CHANNELS 3 Zrotation Xrotation Yrotation
						JOINT RightForeArm
						{
							OFFSET	 0.000000	 0.000000	 0.365611
							CHANNELS 3 Zrotation Xrotation Yrotation
							JOINT RightHand
							{
								OFFSET	 0.000000	 0.000000	 0.360648
								CHANNELS 3 Zrotation Xrotation Yrotation
								JOINT RightHandIndex1
								{
									OFFSET	 0.000000	 0.000000	 0.069977
									CHANNELS 3 Zrotation Xrotation Yrotation
									JOINT RightHandIndex2
									{
										OFFSET	 0.000000	 0.000000	 0.052305
										CHANNELS 3 Zrotation Xrotation Yrotation
										JOINT RightHandIndex3
										{
											OFFSET	 0.009002	-0.000782	 0.042196
											CHANNELS 3 Zrotation Xrotation Yrotation
											End Site
											{
												OFFSET	 0.009002	-0.000782	 0.042196
											}
										}
									}
								}
							}
						}
					}
				}
			}
		}
	}
}
MOTION
Frames:    13
Frame Time: 0.03333334
-0.742992	-9.190666	 1.171285	-11.346820	 9.304604	 3.061257	 5.548513	-20.462390	 175.414000	-4.320261	-36.425300	-1.080677	-1.227198	 83.571720	-0.549508	-2.331145	 36.744770	-0.191575	-1.866889	-22.346700	-178.953800	-2.004036	-40.181310	-0.890318	-1.526266	 86.727390	 0.815399	 2.394049	 25.957560	-0.051779	 0.416344	 5.329494	-1.553909	 0.811319	 3.981246	-2.058594	 0.662145	 1.635190	 0.034367	-101.391300	 88.596670	-167.732500	 54.193840	 68.190030	-64.011410	-4.807601	-4.290969	-17.436080	 6.988446	-12.906310	-5.438132	-2.256696	-11.343980	 6.558774	-5.213516	-0.193813	 3.566525	-1.378229	 35.397820	-2.634230	 0.751290	 1.391077	 0.663260	 0.534619	 3.143792	 0.347773	 96.656170	 87.909780	 170.189600	-51.278140	 75.689400	 64.608780	-2.245269	-12.738200	 23.169560	-24.128270	-13.728670	 9.832742	-7.399635	-4.237758	-37.015090	 5.070815	-0.697434	-9.399699	-2.350882	 35.473990	 5.254307
-0.744213	-9.192314	 1.170912	-11.254060	 9.142512	 3.004093	 5.481389	-20.284610	 175.392400	-4.324882	-36.485920	-1.126783	-1.268952	 83.655790	-0.569754	-2.329337	 36.943330	-0.196529	-1.771446	-21.834640	-178.976900	-1.939711	-39.580200	-0.799806	-1.515422	 86.490280	 0.901058	 2.395133	 25.626740	-0.058708	 0.362788	 5.341063	-1.547894	 0.786742	 4.132863	-2.057196	 0.700432	 1.783393	 0.035450	-101.174400	 88.606750	-168.029500	 53.734200	 68.345930	-63.440970	-4.761861	-4.269379	-17.036580	 7.158162	-12.930450	-5.432662	-2.893635	-11.591790	 5.063439	-5.213516	-0.193813	 3.566525	-1.378229	 35.397820	-2.634230	 0.770330	 1.475131	 0.706105	 0.598824	 3.342132	 0.379085	 96.753040	 87.931520	 170.089000	-51.787550	 75.651720	 65.000830	-2.399296	-12.709440	 23.088820	-24.146530	-13.741300	 9.832335	-7.359450	-4.248579	-36.903950	 5.070815	-0.697434	-9.399699	-2.350882	 35.473990	 5.254307
-0.748910	-9.197822	 1.170442	-10.709840	 8.896637	 2.782358	 5.245669	-19.818880	 175.352200	-4.155673	-36.428270	-1.159002	-1.372031	 83.806820	-0.522662	-2.324584	 37.453440	-0.209355	-1.849162	-19.852790	-179.020200	-1.268774	-37.118270	-0.459764	-1.399381	 86.530510	 1.249295	 2.391353	 26.730990	-0.035474	 0.116365	 5.112052	-1.529770	 0.614923	 4.561415	-2.033226	 0.742089	 2.293122	 0.034264	-100.212900	 88.602820	-169.244200	 52.871080	 68.831590	-62.358460	-4.672259	-4.222189	-16.022420	 7.651207	-13.010400	-5.419616	-3.374003	-11.914010	 3.941209	-5.213516	-0.193813	 3.566525	-1.378229	 35.397820	-2.634230	 0.732709	 1.735849	 0.882890	 0.754865	 4.062240	 0.219218	 97.248090	 88.037860	 169.580600	-52.691300	 75.713950	 65.328960	-2.722163	-12.636590	 22.902370	-24.171620	-13.793920	 9.833290	-7.221159	-4.164432	-36.612350	 5.070815	-0.697434	-9.399699	-2.350882	 35.473990	 5.254307
-0.754019	-9.201592	 1.170632	-10.459400	 8.847297	 3.022037	 4.963438	-19.385620	 174.895400	-4.054859	-36.067600	-1.265111	-1.462753	 83.584490	-0.604035	-2.322215	 37.700310	-0.215612	-2.239352	-18.729720	-179.589500	-1.125545	-35.246780	-0.653197	-1.664625	 86.377170	 1.271739	 2.394799	 25.729550	-0.056557	 0.052906	 4.903746	-2.040480	 0.625521	 4.840010	-2.094237	 0.788137	 2.697545	 0.033611	-98.892520	 88.437520	-170.656900	 52.478000	 69.584560	-62.291440	-4.976041	-4.265099	-15.411940	 8.228971	-13.111540	-5.409066	-3.251765	-11.996860	 4.222067	-5.213516	-0.193813	 3.566525	-1.378229	 35.397820	-2.634230	 0.791366	 1.990081	 1.097467	 0.806382	 4.590758	 0.274355	 98.266950	 88.257860	 168.603100	-53.234070	 75.831810	 65.309970	-2.917139	-12.553490	 22.742850	-24.144040	-13.876600	 9.836410	-7.092473	-3.958822	-36.435360	 5.070815	-0.697434	-9.399699	-2.350882	 35.473990	 5.254307
-0.758700	-9.204618	 1.171347	-11.491940	 8.906991	 3.104482	 4.979201	-18.775840	 174.914500	-4.509054	-35.227730	-1.476929	-1.539538	 83.103890	-0.903550	-2.323785	 37.536560	-0.211461	-2.465377	-18.473920	-179.673200	-1.846262	-34.472010	-1.195669	-2.482791	 86.053450	 1.292657	 2.397563	 24.816060	-0.075579	 0.461590	 4.573120	-2.048247	 1.017505	 4.946649	-2.034841	 0.922366	 2.922150	 0.037529	-99.048810	 88.396850	-170.383400	 52.513330	 70.392380	-62.209990	-6.260264	-4.243221	-16.083670	 7.659163	-13.242250	-5.425357	-3.870492	-12.929010	 2.795359	-5.213516	-0.193813	 3.566525	-1.378229	 35.397820	-2.634230	 1.051278	 2.259140	 1.061028	 0.770248	 4.763276	 0.096749	 97.843190	 88.299230	 169.247600	-53.092850	 75.821640	 64.909610	-3.217871	-12.504420	 22.500190	-24.259420	-14.028510	 9.838748	-6.985737	-3.691251	-36.360730	 5.070815	-0.697434	-9.399699	-2.350882	 35.473990	 5.254307
-0.760823	-9.205417	 1.172039	-11.946420	 8.885416	 2.683248	 5.097579	-18.217240	 175.283800	-4.729819	-34.596650	-1.482512	-1.600585	 82.908040	-0.919288	-2.325513	 37.354470	-0.206861	-2.465039	-18.618930	-179.370900	-1.916902	-34.487300	-1.215244	-2.628546	 86.051570	 1.412951	 2.396852	 25.063330	-0.070450	 0.568586	 4.650268	-1.548238	 1.084107	 4.967992	-1.835680	 0.972101	 2.978515	 0.039075	-99.439430	 88.443040	-169.950000	 53.925930	 69.893070	-63.345010	-6.475325	-4.135308	-16.972630	 6.718142	-13.330630	-5.444438	-3.812428	-12.960860	 2.927389	-5.213516	-0.193813	 3.566525	-1.378229	 35.397820	-2.634230	 1.107741	 2.199806	 0.955343	 0.799266	 4.935145	-0.088719	 97.540310	 88.239860	 169.544300	-52.772930	 75.725450	 64.684730	-3.427976	-12.493560	 22.323930	-24.396360	-14.139490	 9.840988	-6.966576	-3.625786	-36.360520	 5.070815	-0.697434	-9.399699	-2.350882	 35.473990	 5.254307
-0.763179	-9.206276	 1.173169	-12.000160	 8.900728	 2.429095	 5.131934	-17.839420	 175.433800	-4.737962	-33.944330	-1.419069	-1.698491	 82.812970	-0.801648	-2.326916	 37.205640	-0.203106	-2.503568	-18.551440	-179.298600	-1.803359	-34.713100	-1.164986	-2.726502	 86.056820	 1.592028	 2.395874	 25.390380	-0.063640	 0.436098	 4.762239	-1.462884	 0.978488	 5.006505	-1.676304	 0.998599	 3.032546	 0.039669	-98.749230	 88.354090	-170.708800	 56.372620	 68.614970	-65.851070	-5.201890	-4.223695	-17.616370	 6.611485	-13.501840	-5.453330	-3.510612	-12.003170	 3.624282	-5.213516	-0.193813	 3.566525	-1.378229	 35.397820	-2.634230	 1.097969	 2.200185	 1.005405	 0.875637	 5.038317	-0.008789	 98.271880	 88.315300	 168.708100	-51.825750	 75.567330	 63.931760	-3.659808	-12.474530	 22.097990	-24.556380	-14.323600	 9.846767	-7.008373	-3.698753	-36.413900	 5.070815	-0.697434	-9.399699	-2.350882	 35.473990	 5.254307
-0.764882	-9.207359	 1.174093	-11.751250	 8.939166	 2.307615	 5.102676	-17.681750	 175.458300	-4.607658	-33.608620	-1.338681	-1.765264	 82.764110	-0.648360	-2.327802	 37.110570	-0.200713	-2.535887	-18.442250	-179.298600	-1.590807	-34.790340	-1.060062	-2.759051	 86.052360	 1.781027	 2.394771	 25.737670	-0.056383	 0.192013	 4.641993	-1.559965	 0.782752	 5.080401	-1.621877	 0.980771	 3.117550	 0.038233	-97.937440	 88.273990	-171.671700	 57.904380	 67.739740	-67.862810	-4.125425	-4.407143	-17.955020	 6.973602	-13.712720	-5.457372	-3.236096	-11.132720	 4.277806	-5.213516	-0.193813	 3.566525	-1.378229	 35.397820	-2.634230	 1.028349	 2.293372	 1.031534	 0.933199	 5.107625	 0.214156	 99.596250	 88.471330	 167.296100	-50.141320	 75.444760	 62.361410	-3.687398	-12.462070	 22.020550	-24.572500	-14.538980	 9.854924	-7.052018	-3.712457	-36.516920	 5.070815	-0.697434	-9.399699	-2.350882	 35.473990	 5.254307
-0.766137	-9.208061	 1.174856	-11.335410	 8.921649	 2.154394	 5.106693	-17.585720	 175.466900	-4.321667	-33.443140	-1.168074	-1.716561	 82.751450	-0.451082	-2.328437	 37.041850	-0.198993	-2.641288	-18.304220	-179.255900	-1.379749	-34.742910	-0.991680	-2.825757	 86.032470	 1.948988	 2.394719	 25.755620	-0.056018	-0.082374	 4.613711	-1.516170	 0.528530	 5.147734	-1.646136	 0.906255	 3.196710	 0.034702	-97.654310	 88.297620	-172.086600	 58.697330	 67.272010	-69.155620	-4.184593	-4.392720	-18.446210	 6.629735	-13.944440	-5.469932	-3.378078	-10.961910	 3.948108	-5.213516	-0.193813	 3.566525	-1.378229	 35.397820	-2.634230	 0.866403	 2.256759	 1.025997	 0.978014	 5.296198	 0.139479	 99.911070	 88.468390	 166.883000	-48.249530	 75.310220	 60.632230	-3.576219	-12.475890	 22.074260	-24.502450	-14.782420	 9.864608	-7.090794	-3.652117	-36.663580	 5.070815	-0.697434	-9.399699	-2.350882	 35.473990	 5.254307
-0.767011	-9.208675	 1.175364	-10.971720	 8.906157	 2.057641	 5.059698	-17.418530	 175.484600	-4.105931	-33.307020	-1.065426	-1.768164	 82.768710	-0.251888	-2.329301	 36.947570	-0.196638	-2.765601	-18.133130	-179.295600	-1.165461	-34.683060	-0.937298	-2.900897	 86.022800	 2.105759	 2.394732	 25.749170	-0.056150	-0.261407	 4.625139	-1.431562	 0.338735	 5.173090	-1.723415	 0.811605	 3.233082	 0.030820	-97.888570	 88.396850	-171.914900	 59.053520	 66.665630	-69.808830	-4.138341	-4.415542	-19.339790	 6.205535	-14.181110	-5.486417	-3.328785	-10.704910	 4.068977	-5.213516	-0.193813	 3.566525	-1.378229	 35.397820	-2.634230	 0.697395	 2.122855	 1.095110	 0.988783	 5.499505	-0.195883	 99.489870	 88.377310	 167.230300	-46.397380	 75.174280	 58.962600	-3.301904	-12.487770	 22.250520	-24.299020	-15.039830	 9.877739	-7.131914	-3.566137	-36.836350	 5.070815	-0.697434	-9.399699	-2.350882	 35.473990	 5.254307
-0.767586	-9.209119	 1.175646	-10.674200	 8.944805	 2.061719	 5.010166	-17.327030	 175.452400	-3.928293	-33.140770	-0.986214	-1.823373	 82.814900	-0.090074	-2.330369	 36.830360	-0.193702	-2.812635	-17.992500	-179.306700	-0.983165	-34.616540	-0.859427	-2.962844	 86.021530	 2.284592	 2.394646	 25.776120	-0.055579	-0.356414	 4.566329	-1.416296	 0.222629	 5.150623	-1.810239	 0.717687	 3.224689	 0.027306	-98.295910	 88.495850	-171.526400	 58.992660	 65.923400	-70.184200	-3.876371	-4.602351	-20.815770	 5.997965	-14.457080	-5.505204	-3.350522	-10.622800	 4.019209	-5.213516	-0.193813	 3.566525	-1.378229	 35.397820	-2.634230	 0.572487	 2.126956	 0.990072	 0.933290	 5.483781	-0.257293	 98.951000	 88.283090	 167.740600	-44.641640	 75.010530	 57.481510	-2.757778	-12.461360	 22.587060	-23.847400	-15.344260	 9.896395	-7.171384	-3.498986	-36.990760	 5.070815	-0.697434	-9.399699	-2.350882	 35.473990	 5.254307
-0.767645	-9.209006	 1.175883	-10.493660	 8.956959	 2.033324	 5.045394	-17.346290	 175.458100	-3.814288	-33.034070	-0.899227	-1.894017	 82.881970	 0.106912	-2.330590	 36.805540	-0.193093	-2.803693	-18.020860	-179.279300	-0.871493	-34.562850	-0.790189	-3.042588	 86.027150	 2.469718	 2.394334	 25.872910	-0.053552	-0.393343	 4.556425	-1.325768	 0.154373	 5.121979	-1.849955	 0.640635	 3.212444	 0.024443	-98.683280	 88.560330	-171.124700	 58.333920	 65.488960	-70.026290	-4.120608	-4.705037	-22.210040	 5.636015	-14.749470	-5.522902	-3.813108	-11.154990	 2.925785	-5.213516	-0.193813	 3.566525	-1.378229	 35.397820	-2.634230	 0.473692	 2.051362	 0.970751	 0.886167	 5.538990	-0.463477	 98.467540	 88.200610	 168.219000	-43.543170	 74.795960	 56.740600	-2.288762	-12.479670	 22.994170	-23.425590	-15.659030	 9.916023	-7.196041	-3.510808	-37.045780	 5.070815	-0.697434	-9.399699	-2.350882	 35.473990	 5.254307
-0.767154	-9.208666	 1.176126	-10.397310	 8.946718	 2.006963	 5.060218	-17.393790	 175.470300	-3.750863	-32.979890	-0.852601	-1.969884	 82.960010	 0.250189	-2.330547	 36.810200	-0.193208	-2.773488	-18.051720	-179.290100	-0.750311	-34.528050	-0.707147	-3.132094	 86.038100	 2.685832	 2.394068	 25.951890	-0.051901	-0.387931	 4.598234	-1.236412	 0.131503	 5.097062	-1.860927	 0.597395	 3.172424	 0.023002	-99.013240	 88.607870	-170.779000	 57.060020	 65.336230	-69.340740	-4.724563	-4.774672	-23.524360	 5.259442	-15.110960	-5.539197	-3.284280	-11.486570	 4.157516	-5.213516	-0.193813	 3.566525	-1.378229	 35.397820	-2.634230	 0.423670	 1.924326	 0.897999	 0.848621	 5.589696	-0.534156	 98.024670	 88.122890	 168.667800	-43.198040	 74.454330	 56.847130	-2.009402	-12.581760	 23.512410	-23.068120	-16.031950	 9.940360	-7.201572	-3.663380	-36.942570	 5.070815	-0.697434	-9.399699	-2.350882	 35.473990	 5.254307
